<svg width="26" height="25" viewBox="0 0 26 25" fill="none" xmlns="http://www.w3.org/2000/svg">
<path d="M14.4688 12.5002L21.0313 5.94811C21.2274 5.75196 21.3376 5.48592 21.3376 5.20853C21.3376 4.93113 21.2274 4.66509 21.0313 4.46894C20.8351 4.27279 20.5691 4.1626 20.2917 4.1626C20.0143 4.1626 19.7483 4.27279 19.5521 4.46894L13 11.0314L6.44793 4.46894C6.25178 4.27279 5.98575 4.1626 5.70835 4.1626C5.43095 4.1626 5.16492 4.27279 4.96877 4.46894C4.77262 4.66509 4.66242 4.93113 4.66242 5.20853C4.66242 5.48592 4.77262 5.75196 4.96877 5.94811L11.5313 12.5002L4.96877 19.0523C4.87113 19.1491 4.79364 19.2643 4.74076 19.3913C4.68787 19.5182 4.66064 19.6543 4.66064 19.7919C4.66064 19.9294 4.68787 20.0655 4.74076 20.1925C4.79364 20.3194 4.87113 20.4346 4.96877 20.5314C5.0656 20.6291 5.18081 20.7066 5.30775 20.7595C5.43469 20.8123 5.57084 20.8396 5.70835 20.8396C5.84586 20.8396 5.98202 20.8123 6.10895 20.7595C6.23589 20.7066 6.3511 20.6291 6.44793 20.5314L13 13.9689L19.5521 20.5314C19.6489 20.6291 19.7641 20.7066 19.8911 20.7595C20.018 20.8123 20.1542 20.8396 20.2917 20.8396C20.4292 20.8396 20.5653 20.8123 20.6923 20.7595C20.8192 20.7066 20.9344 20.6291 21.0313 20.5314C21.1289 20.4346 21.2064 20.3194 21.2593 20.1925C21.3122 20.0655 21.3394 19.9294 21.3394 19.7919C21.3394 19.6543 21.3122 19.5182 21.2593 19.3913C21.2064 19.2643 21.1289 19.1491 21.0313 19.0523L14.4688 12.5002Z" fill="black"/>
</svg>
